<svg xmlns="http://www.w3.org/2000/svg" viewBox="0 0 220 260" width="140" height="165" fill="none" role="img" aria-label="Canada host shield">
  <path d="M28,20 L192,20 L192,140 L110,240 L28,140 Z" fill="#dc2626" stroke="#ffffff" stroke-width="6" stroke-linejoin="round"/>
  <ellipse cx="110" cy="46" rx="72" ry="18" fill="#ffffff" opacity="0.12"/>
  <path fill="#ffffff" transform="translate(110 106) scale(0.8)"
    d="M0,-62 L6,-40 L20,-46 L16,-30 L44,-32 L34,-16 L58,-6 L30,-2 L40,20 L16,16 L12,40 L5,42 L5,62 L-5,62 L-5,42 L-12,40 L-16,16 L-40,20 L-30,-2 L-58,-6 L-34,-16 L-44,-32 L-16,-30 L-20,-46 L-6,-40 Z"/>
</svg>
