<svg xmlns="http://www.w3.org/2000/svg" viewBox="0 0 220 260" width="140" height="165" fill="none" role="img" aria-label="Mexico host shield">
  <path d="M28,20 L192,20 L192,140 L110,240 L28,140 Z" fill="#15803d" stroke="#ffffff" stroke-width="6" stroke-linejoin="round"/>
  <ellipse cx="110" cy="46" rx="72" ry="18" fill="#ffffff" opacity="0.12"/>
  <g fill="#ffffff" transform="translate(110 104) scale(0.95)">
    <path d="M0,-4 C-8,-14 -22,-14 -26,-4 C-42,-10 -58,0 -62,12 C-44,4 -30,8 -18,16 C-10,22 -4,30 0,44 C4,30 10,22 18,16 C30,8 44,4 62,12 C58,0 42,-10 26,-4 C22,-14 8,-14 0,-4 Z"/>
    <circle cx="0" cy="-14" r="8"/>
    <polygon points="6,-16 19,-19 6,-9"/>
  </g>
</svg>
